Coordinates
version=1
nRows=25
nColumns=28
inDegrees=yes

Units are S.I. units (second, meters, Newtons, ...)
Angles are in degrees.

endheader
time	pelvis_tilt	pelvis_list	pelvis_rotation	pelvis_tx	pelvis_ty	pelvis_tz	hip_flexion_r	hip_adduction_r	hip_rotation_r	knee_angle_r	ankle_angle_r	subtalar_angle_r	mtp_angle_r	hip_flexion_l	hip_adduction_l	hip_rotation_l	knee_angle_l	socket_flexion	socket_adduction	socket_rotation	socket_tx	socket_ty	socket_tz	foot_flex	lumbar_extension	lumbar_bending	lumbar_rotation
      0.31666667	      2.03394258	     -1.66536097	     -5.05289537	     -0.41889721	      1.03109338	      0.26660613	     14.52250884	      1.45105238	     -2.67102100	    -60.79406010	     11.59164125	    -15.94418081	     -5.74908657	     -1.46171346	     -2.60643978	     -9.48235944	     -1.66256345	      1.10482163	      4.57778093	     18.04039469	      0.00000000	     -0.00729904	      0.00000000	     -0.62356500	    -11.47353254	     -1.55441591	      3.15775950
      0.32083333	      2.62880812	     -2.08324583	     -4.60577803	     -0.41333469	      1.03254934	      0.26572503	     14.08126185	      1.72960790	     -3.20569975	    -59.87164461	     12.48560468	    -15.47054072	     -6.92463618	     -2.73398954	     -2.92621275	     -9.13127440	     -0.80143356	      1.56153631	      4.74175591	     18.04804326	      0.00000000	     -0.00713847	      0.00000000	     -0.42754599	    -12.19901188	     -0.97247387	      2.48719166
      0.32500000	      2.60990739	     -2.12033495	     -4.49945981	     -0.40825267	      1.03296143	      0.26559103	     14.56437072	      1.79262646	     -3.27032866	    -59.27226920	     12.69074463	    -15.49322011	     -6.94557782	     -3.03125289	     -2.94555521	     -9.14440936	     -0.78357363	      1.53185281	      4.73523015	     18.10544946	      0.00000000	     -0.00681025	      0.00000000	     -0.29816139	    -12.22427836	     -0.91756606	      2.49705292
      0.32916667	      2.56715885	     -2.36005988	     -4.30571813	     -0.40288417	      1.03324007	      0.26527229	     14.98227138	      2.03511972	     -3.51253181	    -58.57167818	     13.11391777	    -15.48298668	     -7.02165986	     -3.37811184	     -3.18644985	     -9.14581633	     -0.62643109	      1.56432651	      4.77077975	     18.32730890	      0.00000000	     -0.00686382	      0.00000000	     -0.14155651	    -12.19081598	     -0.60238917	      2.43209165
      0.33333333	      2.61406874	     -2.69760157	     -4.08734377	     -0.39755349	      1.03363188	      0.26482082	     15.25968115	      2.35351466	     -3.79993065	    -57.76806857	     13.43911527	    -15.36028998	     -7.31756854	     -3.84081266	     -3.52042866	     -9.11132075	     -0.41411584	      1.63127039	      4.81764162	     18.46601032	      0.00000000	     -0.00706331	      0.00000000	     -0.06224395	    -12.29173664	     -0.11984984	      2.18165393
      0.33750000	      2.63091801	     -2.70585217	     -3.99780663	     -0.39254427	      1.03399602	      0.26472268	     15.66916247	      2.37014904	     -3.86935756	    -57.06054192	     13.58134674	    -15.38367781	     -7.37042001	     -4.16434751	     -3.50913468	     -9.09515340	     -0.41959157	      1.58704547	      4.80388311	     18.49349947	      0.00000000	     -0.00673454	      0.00000000	      0.04511531	    -12.35836721	     -0.10912341	      2.14523255
      0.34166667	      2.64201706	     -2.77897113	     -3.85490959	     -0.38738350	      1.03431667	      0.26454333	     16.03126694	      2.43245881	     -4.02344841	    -56.27654625	     13.79920163	    -15.42323001	     -7.43453766	     -4.50914283	     -3.57276211	     -9.07767646	     -0.37852554	      1.55918202	      4.79858066	     18.58666304	      0.00000000	     -0.00649964	      0.00000000	      0.17752450	    -12.40157448	     -0.00627682	      2.08514689
      0.34583333	      2.65692923	     -2.89715406	     -3.69170614	     -0.38218126	      1.03463314	      0.26426195	     16.34938995	      2.52815963	     -4.22948601	    -55.42785458	     14.03092712	    -15.46209878	     -7.51980376	     -4.86494875	     -3.68014115	     -9.06119339	     -0.31192555	      1.54739581	      4.80072663	     18.70668467	      0.00000000	     -0.00632471	      0.00000000	      0.30536771	    -12.45289297	      0.16133111	      1.99444353
      0.35000000	      2.98315534	     -3.44288475	     -3.29176445	     -0.37685176	      1.03533628	      0.26360772	     16.16489245	      3.01376908	     -4.73324351	    -54.31005282	     14.30096732	    -15.45335609	     -8.28194880	     -5.67803559	     -4.25276817	     -8.83841924	      0.06954070	      1.67569376	      4.90783212	     18.84650361	      0.00000000	     -0.00667979	      0.00000000	      0.40768312	    -12.88873847	      0.93479075	      1.42126564
      0.35416667	      2.97647820	     -3.40331783	     -3.23692758	     -0.37195936	      1.03549219	      0.26351577	     16.57951204	      2.95708559	     -4.82671905	    -53.51920930	     14.44198955	    -15.50811559	     -8.32392266	     -5.96652630	     -4.18314784	     -8.87101892	      0.05593323	      1.64515942	      4.87746082	     18.82330070	      0.00000000	     -0.00641241	      0.00000000	      0.49709220	    -12.95775168	      0.90106065	      1.42580298
      0.35833333	      2.96834919	     -3.40388362	     -3.13276633	     -0.36683195	      1.03566826	      0.26343631	     16.91680767	      2.94305720	     -4.96179906	    -52.62164319	     14.62827014	    -15.58258912	     -8.38964498	     -6.28815140	     -4.17732242	     -8.84970559	      0.09616176	      1.60903163	      4.87086471	     18.90295240	      0.00000000	     -0.00610910	      0.00000000	      0.63413946	    -12.95585252	      0.90343271	      1.41765518
      0.36250000	      3.24607294	     -3.86687736	     -2.77894535	     -0.36153412	      1.03627515	      0.26290437	     16.74530892	      3.35721270	     -5.41179742	    -51.38832968	     14.86792033	    -15.74108891	     -9.33091700	     -7.08515107	     -4.67096950	     -8.61317295	      0.59778285	      1.82295373	      4.99735963	     18.97805012	      0.00000000	     -0.00624104	      0.00000000	      0.77453591	    -13.32546621	      1.53336776	      1.03299308
      0.36666667	      3.22299687	     -3.80620289	     -2.72940548	     -0.35653752	      1.03630581	      0.26288175	     17.10862002	      3.27484882	     -5.52210544	    -50.48388681	     15.02830949	    -15.80914223	     -9.39162562	     -7.37750652	     -4.58816689	     -8.63485069	      0.60915878	      1.78611103	      4.97926687	     18.97535472	      0.00000000	     -0.00600096	      0.00000000	      0.87517084	    -13.32424624	      1.47714255	      1.05178602
      0.37083333	      3.18841839	     -3.77596461	     -2.63914734	     -0.35148029	      1.03634919	      0.26283145	     17.43580272	      3.22544228	     -5.65963706	    -49.48842725	     15.19472264	    -15.88438266	     -9.46584603	     -7.66940114	     -4.55387146	     -8.63208348	      0.66041042	      1.75590255	      4.97663100	     19.04167127	      0.00000000	     -0.00567684	      0.00000000	      1.00371660	    -13.31096623	      1.45250199	      1.05820492
      0.37500000	      3.15399072	     -3.77718194	     -2.53474149	     -0.34647684	      1.03632805	      0.26274252	     17.74310454	      3.20523540	     -5.82967682	    -48.45708430	     15.34644691	    -15.96382957	     -9.55221617	     -7.95772846	     -4.55063215	     -8.64145804	      0.71899201	      1.75556197	      4.97458627	     19.11402769	      0.00000000	     -0.00548988	      0.00000000	      1.12503979	    -13.30921965	      1.46880893	      1.04823573
      0.37916667	      3.32350539	     -4.23316761	     -2.19540079	     -0.34115499	      1.03662186	      0.26217401	     17.62343544	      3.61137897	     -6.29486980	    -47.06938498	     15.43096899	    -16.23978147	    -10.35335991	     -8.63330937	     -5.04658629	     -8.46704191	      1.22062665	      1.97579761	      5.10238559	     19.20509543	      0.00000000	     -0.00574104	      0.00000000	      1.24003590	    -13.53554641	      2.11183749	      0.74345703
      0.38333333	      3.28913267	     -4.13353824	     -2.16737779	     -0.33623293	      1.03655459	      0.26230388	     17.93172310	      3.50911001	     -6.38240602	    -46.02548267	     15.57278007	    -16.29744673	    -10.42481934	     -8.91816131	     -4.93870141	     -8.47536048	      1.24383542	      1.93369975	      5.09927528	     19.19621071	      0.00000000	     -0.00538662	      0.00000000	      1.36528793	    -13.51966698	      1.99118766	      0.75039409
      0.38750000	      3.25702427	     -4.13271158	     -2.01350994	     -0.33123818	      1.03644416	      0.26220275	     18.16612233	      3.48741707	     -6.57538034	    -44.86372099	     15.71217626	    -16.41667633	    -10.62778949	     -9.22865827	     -4.95406089	     -8.43455250	      1.39999280	      2.00053695	      5.13656575	     19.31488605	      0.00000000	     -0.00518603	      0.00000000	      1.50933336	    -13.53387091	      2.00506852	      0.74376751
      0.39166667	      3.43872554	     -4.41185027	     -1.83277100	     -0.32610151	      1.03667676	      0.26201665	     18.04735887	      3.76567678	     -6.84712936	    -43.46403476	     15.79122725	    -16.68978908	    -11.61231372	     -9.95027332	     -5.24899408	     -8.24890961	      1.96224500	      2.24235611	      5.27095054	     19.20092089	      0.00000000	     -0.00514918	      0.00000000	      1.61734383	    -13.75430110	      2.38990844	      0.52000521
      0.39583333	      3.37088061	     -4.28366637	     -1.80643029	     -0.32120841	      1.03641588	      0.26208665	     18.34682157	      3.62482423	     -6.94069315	    -42.34163258	     15.93450970	    -16.71974259	    -11.66072900	    -10.18790511	     -5.10346012	     -8.29043385	      1.97581841	      2.21421173	      5.25865187	     19.18438144	      0.00000000	     -0.00488866	      0.00000000	      1.72936536	    -13.71142280	      2.25187017	      0.54381909
      0.40000000	      3.28914138	     -4.17443455	     -1.74333798	     -0.31622365	      1.03615593	      0.26214650	     18.61219153	      3.51384704	     -7.04808749	    -41.13592594	     16.06513529	    -16.74754680	    -11.72025936	    -10.42345127	     -4.99308875	     -8.29581488	      2.02252321	      2.19898942	      5.26425151	     19.24670863	      0.00000000	     -0.00458869	      0.00000000	      1.85899410	    -13.63907701	      2.12907057	      0.56453494
      0.40416667	      3.20305616	     -4.08576612	     -1.66530882	     -0.31124493	      1.03582472	      0.26217904	     18.86148168	      3.41776921	     -7.17862834	    -39.89883544	     16.17849257	    -16.77518147	    -11.78818879	    -10.65723398	     -4.90774389	     -8.30785309	      2.08740832	      2.19068353	      5.27273982	     19.32030558	      0.00000000	     -0.00435747	      0.00000000	      1.98646617	    -13.56421250	      2.03674441	      0.57586930
      0.40833333	      3.11198536	     -4.01359527	     -1.56873522	     -0.30620580	      1.03550040	      0.26221183	     19.06694642	      3.34601915	     -7.32109205	    -38.58185845	     16.27183417	    -16.79860707	    -11.87530622	    -10.89636796	     -4.84697535	     -8.29700986	      2.17842619	      2.19588171	      5.28675304	     19.43084089	      0.00000000	     -0.00410008	      0.00000000	      2.12069127	    -13.46104757	      1.96346901	      0.57561533
      0.41250000	      3.09762459	     -4.34645282	     -1.28624670	     -0.30089984	      1.03526949	      0.26187433	     19.01621088	      3.66601981	     -7.69753955	    -36.95318568	     16.16729628	    -17.02737370	    -12.48528780	    -11.35680937	     -5.24499644	     -8.14462289	      2.65418183	      2.41875028	      5.41107911	     19.51136474	      0.00000000	     -0.00425182	      0.00000000	      2.24376456	    -13.45836764	      2.42851730	      0.36220050
      0.41666667	      3.02488633	     -4.20951715	     -1.21027197	     -0.29602308	      1.03488810	      0.26200204	     19.19597668	      3.55218952	     -7.75068476	    -35.61837301	     16.27823788	    -17.04818396	    -12.64249885	    -11.61144528	     -5.11463013	     -8.09558696	      2.76938000	      2.45004222	      5.43726470	     19.53558432	      0.00000000	     -0.00396286	      0.00000000	      2.37241346	    -13.41299076	      2.27177781	      0.35539442
